<svg version="1.1" id="Layer_1" xmlns="http://www.w3.org/2000/svg" xmlns:xlink="http://www.w3.org/1999/xlink" x="0px" y="0px"
	 width="100%" viewBox="0 0 103 103" enable-background="new 0 0 103 103" xml:space="preserve">
<path fill="#969BA3" opacity="1.000000" stroke="none" 
	d="
M1.000000,87.000000 
	C1.000000,63.312439 1.000000,39.624878 1.305754,15.325169 
	C4.528479,8.170258 9.770398,4.066962 16.000000,1.000000 
	C40.020893,1.000000 64.041786,1.000000 88.729630,1.279779 
	C96.440094,3.675738 100.860558,8.641935 104.000000,15.000000 
	C104.000000,40.020893 104.000000,65.041786 103.688484,90.644501 
	C99.090714,97.650223 94.223289,103.048309 85.559898,103.014259 
	C63.737309,102.928482 41.914135,102.967224 20.091242,102.995804 
	C12.463047,103.005791 7.179402,99.201767 3.493158,92.877319 
	C2.430099,91.053436 1.818552,88.966393 1.000000,87.000000 
M37.198792,44.718822 
	C40.754475,41.928894 44.310158,39.138969 48.975723,35.478184 
	C48.975723,38.782276 48.975590,40.554272 48.975742,42.326271 
	C48.976681,53.302723 48.986179,64.279182 48.972504,75.255615 
	C48.969219,77.891060 49.137123,80.660858 52.517178,80.753639 
	C56.036503,80.850250 56.719044,78.128136 56.766041,75.223381 
	C56.784870,74.059471 56.784901,72.895164 56.785076,71.731041 
	C56.786552,61.918755 56.773075,52.106438 56.798450,42.294216 
	C56.802898,40.574371 56.967953,38.854935 57.109653,36.173729 
	C61.080795,39.235096 64.012192,41.972282 67.404045,43.898788 
	C68.987289,44.798038 71.461784,44.128124 73.532318,44.169441 
	C73.118187,42.161114 73.400330,39.358009 72.170593,38.280685 
	C66.554085,33.360279 60.583912,28.827826 54.555157,24.409304 
	C53.556553,23.677418 51.128311,23.551090 50.223419,24.254580 
	C44.321632,28.842787 38.558250,33.626472 33.002453,38.627136 
	C31.928490,39.593792 31.096964,42.431637 31.710722,43.280621 
	C32.545326,44.435085 34.877720,44.506752 37.198792,44.718822 
z"/>
<path fill="#E8ECF3" opacity="1.000000" stroke="none" 
	d="
M1.000000,87.470459 
	C1.818552,88.966393 2.430099,91.053436 3.493158,92.877319 
	C7.179402,99.201767 12.463047,103.005791 20.091242,102.995804 
	C41.914135,102.967224 63.737309,102.928482 85.559898,103.014259 
	C94.223289,103.048309 99.090714,97.650223 103.688484,91.113159 
	C104.000000,95.318916 104.000000,99.637825 103.999985,103.950279 
	C69.666626,103.943817 35.333279,103.943817 1.000000,103.943817 
	C1.000000,98.572067 1.000000,93.256485 1.000000,87.470459 
z"/>
<path fill="#E8ECF3" opacity="1.000000" stroke="none" 
	d="
M15.527336,1.000000 
	C9.770398,4.066962 4.528479,8.170258 1.305754,14.856511 
	C1.000000,10.406251 1.000000,5.812502 1.000000,1.000000 
	C5.683425,1.000000 10.369049,1.000000 15.527336,1.000000 
z"/>
<path fill="#E6EAF1" opacity="1.000000" stroke="none" 
	d="
M104.000000,14.525872 
	C100.860558,8.641935 96.440094,3.675738 89.198288,1.279779 
	C93.921356,1.000000 98.842720,1.000000 104.000000,1.000000 
	C104.000000,5.348784 104.000000,9.700265 104.000000,14.525872 
z"/>
<path fill="#D5D7DC" opacity="1.000000" stroke="none" 
	d="
M36.883293,44.880798 
	C34.877720,44.506752 32.545326,44.435085 31.710722,43.280621 
	C31.096964,42.431637 31.928490,39.593792 33.002453,38.627136 
	C38.558250,33.626472 44.321632,28.842787 50.223419,24.254580 
	C51.128311,23.551090 53.556553,23.677418 54.555157,24.409304 
	C60.583912,28.827826 66.554085,33.360279 72.170593,38.280685 
	C73.400330,39.358009 73.118187,42.161114 73.532318,44.169441 
	C71.461784,44.128124 68.987289,44.798038 67.404045,43.898788 
	C64.012192,41.972282 61.080795,39.235096 57.109653,36.173729 
	C56.967953,38.854935 56.802898,40.574371 56.798450,42.294216 
	C56.773075,52.106438 56.786552,61.918755 56.785076,71.731041 
	C56.784901,72.895164 56.784870,74.059471 56.766041,75.223381 
	C56.719044,78.128136 56.036503,80.850250 52.517178,80.753639 
	C49.137123,80.660858 48.969219,77.891060 48.972504,75.255615 
	C48.986179,64.279182 48.976681,53.302723 48.975742,42.326271 
	C48.975590,40.554272 48.975723,38.782276 48.975723,35.478184 
	C44.310158,39.138969 40.754475,41.928894 36.883293,44.880798 
z"/>
</svg>